8888888888                888      8888888888                       
888                       888      888                              
888                       888      888                              
8888888  .d88b.   .d88b.  888      8888888 888d888 .d88b.   .d88b.  
888     d8P  Y8b d8P  Y8b 888      888     888P"  d8P  Y8b d8P  Y8b 
888     88888888 88888888 888      888     888    88888888 88888888 
888     Y8b.     Y8b.     888      888     888    Y8b.     Y8b.     
888      "Y8888   "Y8888  888      888     888     "Y8888   "Y8888  


Genre: Horror | Mystery | Thriller
Language:English
IMDb: 
http://www.imdb.com/title/tt1658837
Source:HDRip HS Thanks
Encoder:Tony

Format : AVI
Format/Info : Audio Video Interleave
File size : 866 MiB
Duration : 1h 45mn
Overall bit rate : 1 143 Kbps

Video
ID : 0
Format : MPEG-4 Visual
Format profile : Advanced Simple@L5
Format settings, BVOP : 1
Format settings, QPel : No
Format settings, GMC : No warppoints
Format settings, Matrix : Default (H.263)
Codec ID : XVID
Codec ID/Hint : XviD
Duration : 1h 45mn
Bit rate : 910 Kbps
Width : 640 pixels
Height : 264 pixels
Display aspect ratio : 2.40:1
Frame rate : 23.976 fps
Color space : YUV
Chroma subsampling : 4:2:0
Bit depth : 8 bits
Scan type : Progressive
Compression mode : Lossy
Bits/(Pixel*Frame) : 0.225
Stream size : 690 MiB (80%)
Writing library : XviD 1.2.1 (UTC 2008-12-04)

Audio
ID : 1
Format : AC-3
Format/Info : Audio Coding 3
Mode extension : CM (complete main)
Codec ID : 2000
Duration : 1h 45mn
Bit rate mode : Constant
Bit rate : 224 Kbps
Channel(s) : 2 channels
Channel positions : Front: L R
Sampling rate : 48.0 KHz
Bit depth : 16 bits
Compression mode : Lossy
Stream size : 170 MiB (20%)
Alignment : Aligned on interleaves
Interleave, duration : 42 ms (1.00 video frame)
Interleave, preload duration : 512 ms


Plot:
When her child goes missing, a mother looks to unravel the legend of the Tall Man, an entity who allegedly abducts children.


Screen Shots:
  
http://img812.imageshack.us/img812/6949/vlcsnap2012072913h04m47.png
 
http://img267.imageshack.us/img267/6307/vlcsnap2012072913h05m26.png
 
http://img838.imageshack.us/img838/6952/vlcsnap2012072913h05m07.png
 
http://img707.imageshack.us/img707/7708/vlcsnap2012072913h05m40.png
 
http://img812.imageshack.us/img812/1532/vlcsnap2012072913h07m05.png


8888888888                888      8888888888                       
888                       888      888                              
888                       888      888                              
8888888  .d88b.   .d88b.  888      8888888 888d888 .d88b.   .d88b.  
888     d8P  Y8b d8P  Y8b 888      888     888P"  d8P  Y8b d8P  Y8b 
888     88888888 88888888 888      888     888    88888888 88888888 
888     Y8b.     Y8b.     888      888     888    Y8b.     Y8b.     
888      "Y8888   "Y8888  888      888     888     "Y8888   "Y8888  